<?xml version="1.0" standalone="no"?>
<!DOCTYPE svg PUBLIC "-//W3C//DTD SVG 20010904//EN"
 "http://www.w3.org/TR/2001/REC-SVG-20010904/DTD/svg10.dtd">
<svg version="1.0" xmlns="http://www.w3.org/2000/svg"
 width="260.000000pt" height="260.000000pt" viewBox="0 0 260.000000 260.000000"
 preserveAspectRatio="xMidYMid meet">
<metadata>
Created by potrace 1.11, written by Peter Selinger 2001-2013
</metadata>
<g transform="translate(0.000000,260.000000) scale(0.100000,-0.100000)"
fill="#000000" stroke="none">
<path d="M1148 2593 c-84 -4 -88 -5 -122 -38 -19 -19 -44 -39 -55 -45 -12 -6
-20 -14 -18 -19 2 -9 -61 -71 -73 -71 -5 0 -12 -9 -15 -20 -4 -11 -11 -18 -16
-15 -5 4 -9 1 -9 -5 0 -14 -81 -96 -92 -92 -4 1 -7 -1 -6 -5 4 -14 -102 -114
-114 -107 -6 4 -8 3 -4 -4 7 -12 -63 -94 -74 -87 -4 3 -10 -5 -13 -16 -3 -12
-10 -18 -17 -14 -6 3 -9 3 -8 -2 4 -10 -44 -59 -54 -56 -5 2 -8 -1 -8 -6 0
-13 -212 -226 -222 -224 -4 2 -8 -4 -8 -12 0 -8 -5 -15 -10 -15 -6 0 -16 -11
-22 -25 -6 -14 -17 -25 -24 -25 -7 0 -18 -9 -24 -20 -6 -11 -15 -18 -21 -15
-5 4 -9 0 -9 -7 0 -7 -24 -34 -52 -61 l-53 -49 -3 -769 -4 -769 1301 0 1301 0
0 1300 0 1300 -682 -2 c-376 -1 -722 -4 -770 -5z m379 -731 l233 233 160 -160
160 -160 -230 -230 -230 -230 230 -231 229 -231 -162 -161 -162 -162 -225 225
c-124 124 -230 225 -235 225 -5 0 -112 -102 -236 -226 l-226 -226 -164 161
-164 161 233 233 233 234 -232 227 -233 227 162 162 163 163 232 -233 231
-234 233 233z"/>
<path d="M724 1877 l-102 -102 231 -231 230 -232 -230 -230 -229 -231 104
-107 104 -107 226 226 c125 125 232 227 237 227 5 0 112 -102 237 -227 l228
-228 107 108 108 107 -233 233 -232 232 230 230 230 230 -102 102 c-57 57
-105 103 -109 103 -3 0 -108 -101 -233 -225 -125 -124 -229 -225 -232 -225 -2
0 -105 100 -230 223 -124 122 -229 223 -232 224 -4 2 -53 -43 -108 -100z"/>
</g>
</svg>
